HIERARCHY
ROOT Hips
{
  OFFSET 52.8259 95.1649 -25.202
  CHANNELS 6 Xposition Yposition Zposition Zrotation Xrotation Yrotation
  JOINT RightUpLeg
  {
    OFFSET -9 6.86154e-007 -3.19532e-009
    CHANNELS 6 Xposition Yposition Zposition Zrotation Xrotation Yrotation
    JOINT RightLowLeg
    {
      OFFSET 0.575 -51.4311 3.90177
      CHANNELS 6 Xposition Yposition Zposition Zrotation Xrotation Yrotation
      JOINT RightFoot
      {
        OFFSET -7.46079e-007 -43.5882 -3.90177
        CHANNELS 6 Xposition Yposition Zposition Zrotation Xrotation Yrotation
        End Site
        {
          OFFSET 4.66716e-007 -6.93413 15.0046
        }
      }
    }
  }
  JOINT Chest
  {
    OFFSET 1.23234e-007 14.8421 1.27327e-009
    CHANNELS 6 Xposition Yposition Zposition Zrotation Xrotation Yrotation
    JOINT LeftCollar
    {
      OFFSET 6.64893 27.3161 3.27471
      CHANNELS 6 Xposition Yposition Zposition Zrotation Xrotation Yrotation
      JOINT LeftUpArm
      {
        OFFSET 10.8584 2.41798 -0.945791
        CHANNELS 6 Xposition Yposition Zposition Zrotation Xrotation Yrotation
        JOINT LeftLowArm
        {
          OFFSET 3.77631 -24.5904 -1.70468
          CHANNELS 6 Xposition Yposition Zposition Zrotation Xrotation Yrotation
          JOINT LeftHand
          {
            OFFSET 1.01026 -21.1231 1.74131
            CHANNELS 6 Xposition Yposition Zposition Zrotation Xrotation Yrotation
            End Site
            {
              OFFSET 1.17583e-006 -9.81266 -2.89439e-008
            }
          }
        }
      }
    }
    JOINT RightCollar
    {
      OFFSET -6.11406 27.2248 4.23427
      CHANNELS 6 Xposition Yposition Zposition Zrotation Xrotation Yrotation
      JOINT RightUpArm
      {
        OFFSET -10.4566 2.3285 -0.910794
        CHANNELS 6 Xposition Yposition Zposition Zrotation Xrotation Yrotation
        JOINT RightLowArm
        {
          OFFSET -3.86856 -25.191 -1.74633
          CHANNELS 6 Xposition Yposition Zposition Zrotation Xrotation Yrotation
          JOINT RightHand
          {
            OFFSET -1.04759 -20.6242 1.75213
            CHANNELS 6 Xposition Yposition Zposition Zrotation Xrotation Yrotation
            End Site
            {
              OFFSET -2.03487e-006 -9.50367 -4.31372e-006
            }
          }
        }
      }
    }
    JOINT Neck
    {
      OFFSET 0.51659 29.8236 6.51843
      CHANNELS 6 Xposition Yposition Zposition Zrotation Xrotation Yrotation
      JOINT Head
      {
        OFFSET 1.16803e-007 7.47049 6.44171e-007
        CHANNELS 6 Xposition Yposition Zposition Zrotation Xrotation Yrotation
        End Site
        {
          OFFSET -4.32676e-008 16.2908 2.16786e-007
        }
      }
    }
  }
  JOINT LeftUpLeg
  {
    OFFSET 9 -3.38008e-006 -5.22994e-009
    CHANNELS 6 Xposition Yposition Zposition Zrotation Xrotation Yrotation
    JOINT LeftLowLeg
    {
      OFFSET -0.575 -51.431 3.90177
      CHANNELS 6 Xposition Yposition Zposition Zrotation Xrotation Yrotation
      JOINT LeftFoot
      {
        OFFSET 2.13082e-007 -43.5882 -3.90177
        CHANNELS 6 Xposition Yposition Zposition Zrotation Xrotation Yrotation
        End Site
        {
          OFFSET 7.44796e-007 -6.93413 15.0046
        }
      }
    }
  }
}
MOTION
Frames:	7
Frame Time:	0.0333333
52.8259 95.1649 -25.202 -0.674653 -9.85325 1.37225 -9 6.86154e-007 -3.19532e-009 -13.1994 -7.24181 -17.0449 0.575 -51.4311 3.90177 -5.60781 33.4451 8.9842 -7.46079e-007 -43.5882 -3.90177 -6.55382 -9.50183 0.182251 1.23234e-007 14.8421 1.27327e-009 0.742092 21.5714 -8.33116 6.64893 27.3161 3.27471 -2.94784 5.93879 -4.20517 10.8584 2.41798 -0.945791 146.969 -56.6187 82.4854 3.77631 -24.5904 -1.70468 10.236 -1.53417 -36.3932 1.01026 -21.1231 1.74131 15.4097 -7.96887 2.1316 -6.11406 27.2248 4.23427 -1.96452 7.32629 3.42623 -10.4566 2.3285 -0.910794 -157.299 -59.5819 -100.575 -3.86856 -25.191 -1.74633 -12.768 -3.31962 66.1543 -1.04759 -20.6242 1.75213 -6.67302 -2.7088 -0.623889 0.51659 29.8236 6.51843 -4.17933 -8.90731 0.0907382 1.16803e-007 7.47049 6.44171e-007 1.79203 13.2266 -1.1269 9 -3.38008e-006 -5.22994e-009 10.8846 -8.21005 10.2374 -0.575 -51.431 3.90177 -1.47155 36.8399 -18.6174 2.13082e-007 -43.5882 -3.90177 10.2832 -12.0045 -0.0028182 
52.8401 95.1516 -25.2142 -0.714119 -9.8084 1.35799 -9 6.86154e-007 -3.19533e-009 -13.1584 -7.31034 -17.0044 0.575 -51.4311 3.90177 -5.62986 33.4732 8.99884 -7.46079e-007 -43.5882 -3.90177 -6.55276 -9.49097 0.182713 1.23234e-007 14.8421 1.27327e-009 0.744102 21.5388 -8.32362 6.64893 27.3161 3.27471 -2.94784 5.93879 -4.20517 10.8584 2.41798 -0.945791 146.885 -56.5825 82.4579 3.77631 -24.5904 -1.70468 10.1868 -1.49256 -36.7247 1.01026 -21.1231 1.74131 15.3823 -8.04398 2.13156 -6.11406 27.2248 4.23427 -1.96452 7.32629 3.42623 -10.4566 2.3285 -0.910794 -157.275 -59.6567 -100.619 -3.86856 -25.191 -1.74633 -12.7815 -3.32202 65.6907 -1.04759 -20.6242 1.75213 -6.46719 -3.03706 -0.590783 0.51659 29.8236 6.51843 -4.0854 -8.9356 0.0775121 1.16803e-007 7.47049 6.44171e-007 1.64749 13.2886 -1.07415 9 -3.38008e-006 -5.22994e-009 10.925 -8.26829 10.2678 -0.575 -51.431 3.90177 -1.48239 36.8751 -18.6151 2.13082e-007 -43.5882 -3.90177 10.3422 -12.0843 0.00446377 
52.878 95.1584 -25.2173 -0.692271 -9.80329 1.33665 -9 6.86154e-007 -3.19533e-009 -13.2016 -7.30516 -17.014 0.575 -51.4311 3.90177 -5.63099 33.4336 9.06038 -7.46079e-007 -43.5882 -3.90177 -6.57959 -9.50328 0.182355 1.23234e-007 14.8421 1.27327e-009 0.691079 21.5292 -8.31719 6.64893 27.3161 3.27471 -2.94784 5.93879 -4.20517 10.8584 2.41798 -0.945791 146.588 -56.6304 82.0458 3.77631 -24.5904 -1.70468 10.215 -1.50781 -36.6048 1.01026 -21.1231 1.74131 15.2791 -8.09754 2.11507 -6.11406 27.2248 4.23427 -1.96452 7.32629 3.42623 -10.4566 2.3285 -0.910794 -157.24 -59.7907 -100.794 -3.86856 -25.191 -1.74633 -12.8243 -3.34445 65.4345 -1.04759 -20.6242 1.75213 -6.13322 -3.34682 -0.537256 0.51659 29.8236 6.51843 -4.17368 -9.04428 0.118238 1.16803e-007 7.47049 6.44171e-007 1.79936 13.5661 -1.10416 9 -3.38008e-006 -5.22994e-009 10.8615 -8.27489 10.2287 -0.575 -51.431 3.90177 -1.46628 36.8793 -18.5602 2.13082e-007 -43.5882 -3.90177 10.3198 -12.0686 0.00295892 
52.9015 95.1514 -25.2137 -0.729667 -9.81291 1.2876 -9 6.86154e-007 -3.19533e-009 -13.1926 -7.30005 -17.0196 0.575 -51.4311 3.90177 -5.60953 33.4113 9.06735 -7.46079e-007 -43.5882 -3.90177 -6.57637 -9.49059 0.182881 1.23234e-007 14.8421 1.27327e-009 0.687804 21.5536 -8.28705 6.64893 27.3161 3.27471 -2.94784 5.93879 -4.20517 10.8584 2.41798 -0.945791 146.429 -56.6506 81.875 3.77631 -24.5904 -1.70468 10.2568 -1.53025 -36.5849 1.01026 -21.1231 1.74131 15.294 -8.19494 2.1248 -6.11406 27.2248 4.23427 -1.96452 7.32629 3.42623 -10.4566 2.3285 -0.910794 -157.167 -59.9002 -100.833 -3.86856 -25.191 -1.74633 -12.8641 -3.37682 65.745 -1.04759 -20.6242 1.75213 -5.87691 -3.3413 -0.499095 0.51659 29.8236 6.51843 -4.14302 -9.19693 0.134751 1.16803e-007 7.47049 6.44171e-007 1.73318 13.7314 -1.0611 9 -3.38008e-006 -5.22994e-009 10.8601 -8.28437 10.2044 -0.575 -51.431 3.90177 -1.43146 36.948 -18.5414 2.13082e-007 -43.5882 -3.90177 10.2943 -12.0377 9.35831e-005 
52.931 95.1283 -25.1966 -0.759281 -9.8243 1.2195 -9 6.86154e-007 -3.19533e-009 -13.1879 -7.31061 -17.0064 0.575 -51.4311 3.90177 -5.61968 33.4329 9.08248 -7.46079e-007 -43.5882 -3.90177 -6.55705 -9.4649 0.183865 1.23234e-007 14.8421 1.27327e-009 0.695169 21.6008 -8.25743 6.64893 27.3161 3.27471 -2.94784 5.93879 -4.20517 10.8584 2.41798 -0.945791 146.199 -56.6059 81.6993 3.77631 -24.5904 -1.70468 10.2948 -1.5448 -36.6674 1.01026 -21.1231 1.74131 15.3539 -8.30759 2.14411 -6.11406 27.2248 4.23427 -1.96452 7.32629 3.42623 -10.4566 2.3285 -0.910794 -157.117 -59.9423 -100.68 -3.86856 -25.191 -1.74633 -12.8252 -3.36049 66.1886 -1.04759 -20.6242 1.75213 -6.13875 -2.9746 -0.542667 0.51659 29.8236 6.51843 -4.07593 -9.49271 0.119315 1.16803e-007 7.47049 6.44171e-007 1.55145 13.8826 -1.0018 9 -3.38008e-006 -5.22994e-009 10.8388 -8.26721 10.1622 -0.575 -51.431 3.90177 -1.38592 36.9994 -18.4361 2.13082e-007 -43.5882 -3.90177 10.3647 -12.159 0.0111572 
52.958 95.1208 -25.182 -0.806049 -9.77871 1.14513 -9 6.86154e-007 -3.19533e-009 -13.1605 -7.36587 -16.9785 0.575 -51.4311 3.90177 -5.61547 33.4306 9.14675 -7.46079e-007 -43.5882 -3.90177 -6.56773 -9.45441 0.184388 1.23234e-007 14.8421 1.27327e-009 0.730759 21.5555 -8.25197 6.64893 27.3161 3.27471 -2.94784 5.93879 -4.20517 10.8584 2.41798 -0.945791 145.927 -56.5975 81.4257 3.77631 -24.5904 -1.70468 10.324 -1.56482 -36.4869 1.01026 -21.1231 1.74131 15.2514 -8.22911 2.11862 -6.11406 27.2248 4.23427 -1.96452 7.32629 3.42623 -10.4566 2.3285 -0.910794 -157.102 -60.0165 -100.538 -3.86856 -25.191 -1.74633 -12.7566 -3.31736 66.348 -1.04759 -20.6242 1.75213 -6.50454 -2.62036 -0.600435 0.51659 29.8236 6.51843 -4.13719 -9.69773 0.171583 1.16803e-007 7.47049 6.44171e-007 1.54795 14.0948 -0.966198 9 -3.38008e-006 -5.22994e-009 10.8552 -8.30819 10.1563 -0.575 -51.431 3.90177 -1.35326 37.0267 -18.3307 2.13082e-007 -43.5882 -3.90177 10.3797 -12.2301 0.0174446 
52.9776 95.1141 -25.1604 -0.892751 -9.76524 1.09171 -9 6.86154e-007 -3.19533e-009 -13.0781 -7.36411 -16.9344 0.575 -51.4311 3.90177 -5.604 33.3962 9.15065 -7.46079e-007 -43.5882 -3.90177 -6.58029 -9.47219 0.183705 1.23234e-007 14.8421 1.27327e-009 0.834595 21.5729 -8.26843 6.64893 27.3161 3.27471 -2.94784 5.93879 -4.20517 10.8584 2.41798 -0.945791 145.788 -56.5457 81.2789 3.77631 -24.5904 -1.70468 10.2963 -1.55395 -36.4795 1.01026 -21.1231 1.74131 15.4271 -8.0655 2.14167 -6.11406 27.2248 4.23427 -1.96452 7.32629 3.42623 -10.4566 2.3285 -0.910794 -157.348 -60.0627 -100.934 -3.86856 -25.191 -1.74633 -12.7233 -3.29105 66.6248 -1.04759 -20.6242 1.75213 -6.56601 -2.64205 -0.609071 0.51659 29.8236 6.51843 -4.34595 -9.72128 0.218313 1.16803e-007 7.47049 6.44171e-007 1.67491 14.248 -1.01374 9 -3.38008e-006 -5.22994e-009 10.953 -8.3175 10.2202 -0.575 -51.431 3.90177 -1.36374 37.0734 -18.3622 2.13082e-007 -43.5882 -3.90177 10.3926 -12.2556 0.0198034 
